<svg width="38" height="40" viewBox="0 0 38 40" fill="none" xmlns="http://www.w3.org/2000/svg">
<circle cx="19" cy="19" r="19" fill="#495057"/>
<path fill-rule="evenodd" clip-rule="evenodd" d="M19.2509 12.1287L28.2509 21.1287V27.4392C28.2509 28.0359 28.0139 28.6082 27.5919 29.0302C27.17 29.4522 26.5977 29.6892 26.0009 29.6892H12.5009C11.9042 29.6892 11.3319 29.4522 10.91 29.0302C10.488 28.6082 10.2509 28.0359 10.2509 27.4392V21.1287L19.2509 12.1287V12.1287ZM26.7509 10.9392V16.1892L23.7509 13.1892V10.9392C23.7509 10.7403 23.83 10.5495 23.9706 10.4089C24.1113 10.2682 24.302 10.1892 24.5009 10.1892H26.0009C26.1999 10.1892 26.3906 10.2682 26.5313 10.4089C26.6719 10.5495 26.7509 10.7403 26.7509 10.9392Z" fill="white"/>
<path fill-rule="evenodd" clip-rule="evenodd" d="M18.1904 9.43918C18.4717 9.15797 18.8532 9 19.2509 9C19.6487 9 20.0302 9.15797 20.3114 9.43918L30.2819 19.4082C30.4228 19.549 30.5019 19.74 30.5019 19.9392C30.5019 20.1383 30.4228 20.3293 30.2819 20.4702C30.1411 20.611 29.9501 20.6901 29.7509 20.6901C29.5518 20.6901 29.3608 20.611 29.2199 20.4702L19.2509 10.4997L9.28195 20.4702C9.14112 20.611 8.95011 20.6901 8.75095 20.6901C8.55178 20.6901 8.36078 20.611 8.21995 20.4702C8.07912 20.3293 8 20.1383 8 19.9392C8 19.74 8.07912 19.549 8.21995 19.4082L18.1904 9.43918Z" fill="white"/>
</svg>
